<svg xmlns="http://www.w3.org/2000/svg" viewBox="0 0 36 36" id="NikeLogo"><path fill="#ea4335" d="M34.904 20.355c-3.782-5.791-3.38-11.727-5.203-14.518-1.823-2.791-7.256-7.603-20.093.782s-9.572 17.5-7.566 20.569c9.388 14.372 39.561 3.423 32.862-6.833z" class="colorefefef svgShape"></path><path fill="#fbbc05" d="M9.632 18.627c-2.015 2.484-3.916 5.789-2.237 7.311 1.627 1.475 3.661.602 5.047.019 1.387-.582 16.713-7.568 16.713-7.568.148-.078.12-.175-.065-.126-.075.02-16.685 4.745-16.685 4.745-2.107.621-4.511-.733-2.773-4.381z" class="color2fdf84 svgShape"></path><path fill="#34a853" d="M9.645 25.938c-.905-.82-.765-2.159-.133-3.607-.588-.728-.716-1.948.12-3.704-2.015 2.484-3.916 5.789-2.237 7.311 1.042.945 2.249.923 3.348.635a3.027 3.027 0 0 1-1.098-.635zm5.01-2.93 11.609-3.302 2.891-1.317c.148-.078.12-.175-.065-.126-.07.018-14.597 4.151-16.482 4.687.606.247 1.342.266 2.047.058z" class="color00b871 svgShape"></path><path fill="#4285f4" d="M6.75 9.25c-.827 0-1.5-.673-1.5-1.5s.673-1.5 1.5-1.5 1.5.673 1.5 1.5-.673 1.5-1.5 1.5zm0-2a.5.5 0 1 0 0 1 .5.5 0 0 0 0-1zM25.625 25.5h2v1h-2zM31.375 25.5h2v1h-2zM28.875 28h1v2h-1zM28.875 22.25h1v2h-1z" class="colora4afc1 svgShape"></path><path d="M9.497 27.498c-.878 0-1.78-.256-2.605-1.004-1.712-1.552-.946-4.514 2.158-8.34a.75.75 0 0 1 1.26.795c-.625 1.313-.696 2.357-.198 2.941.413.483 1.25.643 2.082.398 5.003-1.423 16.633-4.731 16.707-4.751.539-.143.92.145 1.047.47.126.325.042.791-.443 1.045-.664.304-15.39 7.016-16.771 7.596-.856.36-2.024.85-3.237.85zm-1.104-5.766c-.867 1.545-1.248 2.966-.493 3.65 1.164 1.055 2.598.58 4.215-.101.679-.285 4.611-2.064 8.492-3.827l-7.996 2.274c-1.406.416-2.836.076-3.64-.865a2.77 2.77 0 0 1-.578-1.131zm3.775-4.007-1.393-.557 2.279-5.696a.75.75 0 0 1 1.446.278v1.105l.832-2.081 1.393.557-2.279 5.696A.75.75 0 0 1 13 16.75v-1.105l-.832 2.08z" fill="#000000" class="color000000 svgShape"></path><path d="m15.661 17.168 2.557-6.393 1.393.557-2.557 6.393zM18.525 17.168l2.557-6.393 1.393.557-2.557 6.393z" fill="#000000" class="color000000 svgShape"></path><path d="m21.222 17.67-.902-3.334a.75.75 0 0 1 .201-.733l2.994-2.913 1.046 1.075-2.677 2.605.787 2.908-1.449.392zM27 17.5h-2.75a.751.751 0 0 1-.696-1.029l2-5A.749.749 0 0 1 26.25 11H29v1.5h-2.242l-1.4 3.5H27v1.5z" fill="#000000" class="color000000 svgShape"></path><path d="M24.85 13.5H28V15h-3.15z" fill="#000000" class="color000000 svgShape"></path></svg>